<!DOCTYPE svg PUBLIC "-//W3C//DTD SVG 1.1//EN" "http://www.w3.org/Graphics/SVG/1.1/DTD/svg11.dtd">
<!-- Uploaded to: SVG Repo, www.svgrepo.com, Transformed by: SVG Repo Mixer Tools -->
<svg fill="#ff8c00" height="800px" width="800px" version="1.1" id="Capa_1" xmlns="http://www.w3.org/2000/svg" xmlns:xlink="http://www.w3.org/1999/xlink" viewBox="0 0 356.539 356.539" xml:space="preserve" stroke="#ff8c00">
<g id="SVGRepo_bgCarrier" stroke-width="0"/>
<g id="SVGRepo_tracerCarrier" stroke-linecap="round" stroke-linejoin="round"/>
<g id="SVGRepo_iconCarrier"> <g> <path d="M348.528,192.467c3.207-1.723,4.727-5.519,3.557-8.996c-10.746-31.957-38.548-65.611-70.346-85.704L282,97.252 c1.704-3.36,0.649-7.465-2.464-9.588c-34.971-23.849-74.464-26.628-101.173-26.628c-0.041,0-0.083,0-0.123,0 c-0.018,0-0.034,0.002-0.052,0.002c-0.023,0.001-0.045-0.002-0.067-0.002c-26.709,0-66.205,2.78-101.173,26.628 c-3.113,2.123-4.168,6.228-2.464,9.588l0.261,0.515c-31.798,20.093-59.6,53.747-70.346,85.704c-1.17,3.477,0.35,7.273,3.557,8.996 c-8.958,39.721-10.142,59.648-4.604,68.467c1.808,2.879,6.084,3.913,6.654,4.116c3.159,13.95,13.747,27.988,29.89,30.139 c1.582,0.211,3.162,0.314,4.734,0.314c9.307,0,18.282-3.647,25.175-10.355c3.039-2.958,5.315-6.203,6.693-9.408 c0,0,8.729,0.695,9.639-6.065c0.057-0.421,2.052-19.99,10.804-33.647c2.955,1.276,6.415,0.522,8.572-1.899 c9.657-10.848,19.482-19.117,29.886-25.137c0.231,0.203,4.072,5.727,9.744,2.205c0.113-0.07,12.428-6.139,33.1-6.139 c20.699,0,33.015,6.092,33.1,6.139c5.866,3.228,9.513-2.002,9.743-2.205c10.405,6.021,20.23,14.289,29.886,25.136 c2.158,2.424,5.616,3.176,8.573,1.9c7.349,10.711,10.532,28.324,10.716,32.198c-0.146,3.891,2.737,7.292,6.669,7.728 c0.281,0.031,3.058-0.214,3.058-0.214c1.378,3.205,3.654,6.45,6.693,9.408c6.893,6.708,15.867,10.355,25.175,10.355 c1.571,0,3.152-0.103,4.734-0.314c16.143-2.15,26.73-16.189,29.89-30.139c3.724-0.864,5.542-2.4,6.654-4.116 C358.797,252.195,357.486,232.187,348.528,192.467z M178.122,76.036c0.008,0,0.016-0.003,0.023-0.005 c0.032,0.001,0.064,0.005,0.097,0.005c0.001,0,0.002,0,0.002,0c0.04,0,0.078,0,0.118,0c23.29,0,56.995,2.226,87.196,20.472 l-0.309,0.608l-53.271,98.209c-6.607-2.284-18.203-5.268-33.737-5.268c-15.534,0-27.13,2.983-33.737,5.268L91.234,97.116 l-0.309-0.608C121.129,78.26,154.832,76.036,178.122,76.036z M57.443,276.042c-2.625,2.022-8.136,5.268-15.567,4.277 c-6.825-0.908-12.145-6.154-15.147-12.481l33.738,5.356C59.673,274.109,58.69,275.081,57.443,276.042z M72.297,259.884 l-57.13-9.608c-0.807-4.839-0.678-17.63,6.651-51.024l61.554,30.135C77.161,239.259,73.812,251.494,72.297,259.884z M98.181,219.939c-0.407-0.194-77.273-37.836-77.273-37.836c10.9-26.695,34.255-53.939,60.843-71.01l46.079,84.952 C117.467,202.047,107.685,209.926,98.181,219.939z M228.649,196.054l46.084-84.96c26.588,17.071,49.942,44.315,60.843,71.01 c0,0-76.868,37.642-77.277,37.838C248.879,210.043,238.944,202.045,228.649,196.054z M273.112,229.386l61.554-30.135 c7.331,33.4,7.458,46.188,6.651,51.024l-57.126,9.608C282.672,251.491,279.32,239.256,273.112,229.386z M314.608,280.319 c-7.431,0.994-12.941-2.255-15.567-4.277c-1.247-0.961-2.23-1.933-3.024-2.848l33.738-5.356 C326.753,274.165,321.433,279.411,314.608,280.319z"/> </g> </g>
</svg>