<!DOCTYPE svg PUBLIC "-//W3C//DTD SVG 1.1//EN" "http://www.w3.org/Graphics/SVG/1.1/DTD/svg11.dtd">
<!-- Uploaded to: SVG Repo, www.svgrepo.com, Transformed by: SVG Repo Mixer Tools -->
<svg fill="#ffffff" height="800px" width="800px" version="1.1" id="Layer_1" xmlns="http://www.w3.org/2000/svg" xmlns:xlink="http://www.w3.org/1999/xlink" viewBox="0 0 512 512" xml:space="preserve" stroke="#ffffff">
<g id="SVGRepo_bgCarrier" stroke-width="0"/>
<g id="SVGRepo_tracerCarrier" stroke-linecap="round" stroke-linejoin="round"/>
<g id="SVGRepo_iconCarrier"> <g> <g> <path d="M418.909,174.545h-11.636V128c0-6.982-4.655-11.636-11.636-11.636h-128c-6.982,0-11.636,4.655-11.636,11.636 s4.655,11.636,11.636,11.636H384v186.182c0,6.982,4.655,11.636,11.636,11.636h23.273c45.382,0,81.455-36.073,81.455-81.455 S464.291,174.545,418.909,174.545z M418.909,314.182h-11.636V197.818h11.636c32.582,0,58.182,25.6,58.182,58.182 C477.091,288.582,451.491,314.182,418.909,314.182z"/> </g> </g> <g> <g> <path d="M314.182,0c-6.982,0-11.636,4.655-11.636,11.636s-4.655,11.636-11.636,11.636C271.127,23.273,256,38.4,256,58.182 c0,6.982-4.655,11.636-11.636,11.636s-11.636,4.655-11.636,11.636s4.655,11.636,11.636,11.636 c19.782,0,34.909-15.127,34.909-34.909c0-6.982,4.655-11.636,11.636-11.636c19.782,0,34.909-15.127,34.909-34.909 C325.818,4.655,321.164,0,314.182,0z"/> </g> </g> <g> <g> <path d="M360.727,23.273c-6.982,0-11.636,4.655-11.636,11.636c0,6.982-4.655,11.636-11.636,11.636 c-19.782,0-34.909,15.127-34.909,34.909c0,6.982,4.655,11.636,11.636,11.636s11.636-4.655,11.636-11.636 s4.655-11.636,11.636-11.636c19.782,0,34.909-15.127,34.909-34.909C372.364,27.927,367.709,23.273,360.727,23.273z"/> </g> </g> <g> <g> <path d="M232.727,23.273c-6.982,0-11.636,4.655-11.636,11.636c0,6.982-4.655,11.636-11.636,11.636 c-19.782,0-34.909,15.127-34.909,34.909c0,6.982,4.655,11.636,11.636,11.636s11.636-4.655,11.636-11.636 s4.655-11.636,11.636-11.636c19.782,0,34.909-15.127,34.909-34.909C244.364,27.927,239.709,23.273,232.727,23.273z"/> </g> </g> <g> <g> <path d="M477.091,395.636h-69.818v-23.273c0-6.982-4.655-11.636-11.636-11.636c-6.982,0-11.636,4.655-11.636,11.636v23.273H128 v-256h81.455v69.818h-11.636c-6.982,0-11.636,4.655-11.636,11.636v69.818c0,6.982,4.655,11.636,11.636,11.636h46.545 c6.982,0,11.636-4.655,11.636-11.636v-69.818c0-6.982-4.655-11.636-11.636-11.636h-11.636V128c0-6.982-4.655-11.636-11.636-11.636 H116.364c-6.982,0-11.636,4.655-11.636,11.636v267.636H34.909C15.127,395.636,0,410.764,0,430.545 c0,19.782,15.127,34.909,34.909,34.909h5.818l24.436,32.582C72.145,507.345,82.618,512,93.091,512h325.818 c10.473,0,20.945-4.655,27.927-13.964l24.436-32.582h5.818c19.782,0,34.909-15.127,34.909-34.909 C512,410.764,496.873,395.636,477.091,395.636z M232.727,232.727v46.545h-23.273v-46.545H232.727z M477.091,442.182h-11.636 c-3.491,0-6.982,1.164-9.309,4.655l-27.927,37.236c-2.327,3.491-5.818,4.655-9.309,4.655H93.091c-3.491,0-6.982-1.164-9.309-4.655 l-13.964-18.618h337.455c6.982,0,11.636-4.655,11.636-11.636s-4.655-11.636-11.636-11.636H46.545H34.909 c-6.982,0-11.636-4.655-11.636-11.636s4.655-11.636,11.636-11.636h442.182c6.982,0,11.636,4.655,11.636,11.636 S484.073,442.182,477.091,442.182z"/> </g> </g> </g>
</svg>